<svg xmlns="http://www.w3.org/2000/svg" viewBox="0 0 600 500" fill="none">
  <defs>
    <linearGradient id="bgGradC" x1="0" y1="0" x2="600" y2="500" gradientUnits="userSpaceOnUse">
      <stop offset="0%" stop-color="#0b0e13"/>
      <stop offset="100%" stop-color="#11151b"/>
    </linearGradient>
    <filter id="glowRedC" x="-50%" y="-50%" width="200%" height="200%">
      <feGaussianBlur stdDeviation="6" result="blur"/>
      <feMerge>
        <feMergeNode in="blur"/>
        <feMergeNode in="SourceGraphic"/>
      </feMerge>
    </filter>
    <filter id="glowCyanC" x="-50%" y="-50%" width="200%" height="200%">
      <feGaussianBlur stdDeviation="4" result="blur"/>
      <feMerge>
        <feMergeNode in="blur"/>
        <feMergeNode in="SourceGraphic"/>
      </feMerge>
    </filter>
    <filter id="softGlowC" x="-50%" y="-50%" width="200%" height="200%">
      <feGaussianBlur stdDeviation="20" result="blur"/>
      <feMerge>
        <feMergeNode in="blur"/>
        <feMergeNode in="SourceGraphic"/>
      </feMerge>
    </filter>
  </defs>

  <!-- Background -->
  <rect width="600" height="500" fill="url(#bgGradC)"/>

  <!-- Dot grid -->
  <g fill="#00E0FF" opacity="0.04">
    <circle cx="30" cy="30" r="1"/><circle cx="70" cy="30" r="1"/><circle cx="110" cy="30" r="1"/><circle cx="150" cy="30" r="1"/><circle cx="190" cy="30" r="1"/><circle cx="230" cy="30" r="1"/><circle cx="270" cy="30" r="1"/><circle cx="310" cy="30" r="1"/><circle cx="350" cy="30" r="1"/><circle cx="390" cy="30" r="1"/><circle cx="430" cy="30" r="1"/><circle cx="470" cy="30" r="1"/><circle cx="510" cy="30" r="1"/><circle cx="550" cy="30" r="1"/>
    <circle cx="30" cy="70" r="1"/><circle cx="70" cy="70" r="1"/><circle cx="110" cy="70" r="1"/><circle cx="150" cy="70" r="1"/><circle cx="190" cy="70" r="1"/><circle cx="230" cy="70" r="1"/><circle cx="270" cy="70" r="1"/><circle cx="310" cy="70" r="1"/><circle cx="350" cy="70" r="1"/><circle cx="390" cy="70" r="1"/><circle cx="430" cy="70" r="1"/><circle cx="470" cy="70" r="1"/><circle cx="510" cy="70" r="1"/><circle cx="550" cy="70" r="1"/>
    <circle cx="30" cy="110" r="1"/><circle cx="70" cy="110" r="1"/><circle cx="110" cy="110" r="1"/><circle cx="150" cy="110" r="1"/><circle cx="190" cy="110" r="1"/><circle cx="230" cy="110" r="1"/><circle cx="270" cy="110" r="1"/><circle cx="310" cy="110" r="1"/><circle cx="350" cy="110" r="1"/><circle cx="390" cy="110" r="1"/><circle cx="430" cy="110" r="1"/><circle cx="470" cy="110" r="1"/><circle cx="510" cy="110" r="1"/><circle cx="550" cy="110" r="1"/>
    <circle cx="30" cy="150" r="1"/><circle cx="70" cy="150" r="1"/><circle cx="110" cy="150" r="1"/><circle cx="150" cy="150" r="1"/><circle cx="190" cy="150" r="1"/><circle cx="230" cy="150" r="1"/><circle cx="270" cy="150" r="1"/><circle cx="310" cy="150" r="1"/><circle cx="350" cy="150" r="1"/><circle cx="390" cy="150" r="1"/><circle cx="430" cy="150" r="1"/><circle cx="470" cy="150" r="1"/><circle cx="510" cy="150" r="1"/><circle cx="550" cy="150" r="1"/>
    <circle cx="30" cy="190" r="1"/><circle cx="70" cy="190" r="1"/><circle cx="110" cy="190" r="1"/><circle cx="150" cy="190" r="1"/><circle cx="190" cy="190" r="1"/><circle cx="230" cy="190" r="1"/><circle cx="270" cy="190" r="1"/><circle cx="310" cy="190" r="1"/><circle cx="350" cy="190" r="1"/><circle cx="390" cy="190" r="1"/><circle cx="430" cy="190" r="1"/><circle cx="470" cy="190" r="1"/><circle cx="510" cy="190" r="1"/><circle cx="550" cy="190" r="1"/>
    <circle cx="30" cy="230" r="1"/><circle cx="70" cy="230" r="1"/><circle cx="110" cy="230" r="1"/><circle cx="150" cy="230" r="1"/><circle cx="190" cy="230" r="1"/><circle cx="230" cy="230" r="1"/><circle cx="270" cy="230" r="1"/><circle cx="310" cy="230" r="1"/><circle cx="350" cy="230" r="1"/><circle cx="390" cy="230" r="1"/><circle cx="430" cy="230" r="1"/><circle cx="470" cy="230" r="1"/><circle cx="510" cy="230" r="1"/><circle cx="550" cy="230" r="1"/>
    <circle cx="30" cy="270" r="1"/><circle cx="70" cy="270" r="1"/><circle cx="110" cy="270" r="1"/><circle cx="150" cy="270" r="1"/><circle cx="190" cy="270" r="1"/><circle cx="230" cy="270" r="1"/><circle cx="270" cy="270" r="1"/><circle cx="310" cy="270" r="1"/><circle cx="350" cy="270" r="1"/><circle cx="390" cy="270" r="1"/><circle cx="430" cy="270" r="1"/><circle cx="470" cy="270" r="1"/><circle cx="510" cy="270" r="1"/><circle cx="550" cy="270" r="1"/>
    <circle cx="30" cy="310" r="1"/><circle cx="70" cy="310" r="1"/><circle cx="110" cy="310" r="1"/><circle cx="150" cy="310" r="1"/><circle cx="190" cy="310" r="1"/><circle cx="230" cy="310" r="1"/><circle cx="270" cy="310" r="1"/><circle cx="310" cy="310" r="1"/><circle cx="350" cy="310" r="1"/><circle cx="390" cy="310" r="1"/><circle cx="430" cy="310" r="1"/><circle cx="470" cy="310" r="1"/><circle cx="510" cy="310" r="1"/><circle cx="550" cy="310" r="1"/>
    <circle cx="30" cy="350" r="1"/><circle cx="70" cy="350" r="1"/><circle cx="110" cy="350" r="1"/><circle cx="150" cy="350" r="1"/><circle cx="190" cy="350" r="1"/><circle cx="230" cy="350" r="1"/><circle cx="270" cy="350" r="1"/><circle cx="310" cy="350" r="1"/><circle cx="350" cy="350" r="1"/><circle cx="390" cy="350" r="1"/><circle cx="430" cy="350" r="1"/><circle cx="470" cy="350" r="1"/><circle cx="510" cy="350" r="1"/><circle cx="550" cy="350" r="1"/>
    <circle cx="30" cy="390" r="1"/><circle cx="70" cy="390" r="1"/><circle cx="110" cy="390" r="1"/><circle cx="150" cy="390" r="1"/><circle cx="190" cy="390" r="1"/><circle cx="230" cy="390" r="1"/><circle cx="270" cy="390" r="1"/><circle cx="310" cy="390" r="1"/><circle cx="350" cy="390" r="1"/><circle cx="390" cy="390" r="1"/><circle cx="430" cy="390" r="1"/><circle cx="470" cy="390" r="1"/><circle cx="510" cy="390" r="1"/><circle cx="550" cy="390" r="1"/>
    <circle cx="30" cy="430" r="1"/><circle cx="70" cy="430" r="1"/><circle cx="110" cy="430" r="1"/><circle cx="150" cy="430" r="1"/><circle cx="190" cy="430" r="1"/><circle cx="230" cy="430" r="1"/><circle cx="270" cy="430" r="1"/><circle cx="310" cy="430" r="1"/><circle cx="350" cy="430" r="1"/><circle cx="390" cy="430" r="1"/><circle cx="430" cy="430" r="1"/><circle cx="470" cy="430" r="1"/><circle cx="510" cy="430" r="1"/><circle cx="550" cy="430" r="1"/>
    <circle cx="30" cy="470" r="1"/><circle cx="70" cy="470" r="1"/><circle cx="110" cy="470" r="1"/><circle cx="150" cy="470" r="1"/><circle cx="190" cy="470" r="1"/><circle cx="230" cy="470" r="1"/><circle cx="270" cy="470" r="1"/><circle cx="310" cy="470" r="1"/><circle cx="350" cy="470" r="1"/><circle cx="390" cy="470" r="1"/><circle cx="430" cy="470" r="1"/><circle cx="470" cy="470" r="1"/><circle cx="510" cy="470" r="1"/><circle cx="550" cy="470" r="1"/>
  </g>

  <!-- Ambient glow -->
  <ellipse cx="300" cy="250" rx="200" ry="180" fill="#ed1c24" opacity="0.02" filter="url(#softGlowC)"/>

  <!-- Outer network ring -->
  <circle cx="300" cy="240" r="180" fill="none" stroke="#00E0FF" stroke-width="0.5" stroke-opacity="0.12" stroke-dasharray="8 6"/>
  <circle cx="300" cy="240" r="140" fill="none" stroke="#00E0FF" stroke-width="0.5" stroke-opacity="0.08" stroke-dasharray="4 8"/>

  <!-- Network nodes on outer ring -->
  <g filter="url(#glowCyanC)">
    <!-- Top -->
    <circle cx="300" cy="60" r="6" fill="#161b22" stroke="#00E0FF" stroke-width="1" stroke-opacity="0.5"/>
    <circle cx="300" cy="60" r="2.5" fill="#00E0FF" opacity="0.4"/>
    <!-- Top-right -->
    <circle cx="455" cy="145" r="6" fill="#161b22" stroke="#00E0FF" stroke-width="1" stroke-opacity="0.5"/>
    <circle cx="455" cy="145" r="2.5" fill="#00E0FF" opacity="0.4"/>
    <!-- Right -->
    <circle cx="480" cy="240" r="6" fill="#161b22" stroke="#00E0FF" stroke-width="1" stroke-opacity="0.5"/>
    <circle cx="480" cy="240" r="2.5" fill="#00E0FF" opacity="0.4"/>
    <!-- Bottom-right -->
    <circle cx="455" cy="335" r="6" fill="#161b22" stroke="#00E0FF" stroke-width="1" stroke-opacity="0.5"/>
    <circle cx="455" cy="335" r="2.5" fill="#00E0FF" opacity="0.4"/>
    <!-- Bottom -->
    <circle cx="300" cy="420" r="6" fill="#161b22" stroke="#00E0FF" stroke-width="1" stroke-opacity="0.5"/>
    <circle cx="300" cy="420" r="2.5" fill="#00E0FF" opacity="0.4"/>
    <!-- Bottom-left -->
    <circle cx="145" cy="335" r="6" fill="#161b22" stroke="#00E0FF" stroke-width="1" stroke-opacity="0.5"/>
    <circle cx="145" cy="335" r="2.5" fill="#00E0FF" opacity="0.4"/>
    <!-- Left -->
    <circle cx="120" cy="240" r="6" fill="#161b22" stroke="#00E0FF" stroke-width="1" stroke-opacity="0.5"/>
    <circle cx="120" cy="240" r="2.5" fill="#00E0FF" opacity="0.4"/>
    <!-- Top-left -->
    <circle cx="145" cy="145" r="6" fill="#161b22" stroke="#00E0FF" stroke-width="1" stroke-opacity="0.5"/>
    <circle cx="145" cy="145" r="2.5" fill="#00E0FF" opacity="0.4"/>
  </g>

  <!-- Connection lines from nodes to center shield -->
  <g stroke="#00E0FF" stroke-opacity="0.08" stroke-width="0.8" stroke-dasharray="4 4">
    <line x1="300" y1="60" x2="300" y2="160"/>
    <line x1="455" y1="145" x2="370" y2="185"/>
    <line x1="480" y1="240" x2="380" y2="240"/>
    <line x1="455" y1="335" x2="370" y2="295"/>
    <line x1="300" y1="420" x2="300" y2="330"/>
    <line x1="145" y1="335" x2="230" y2="295"/>
    <line x1="120" y1="240" x2="220" y2="240"/>
    <line x1="145" y1="145" x2="230" y2="185"/>
  </g>

  <!-- Central shield -->
  <g filter="url(#glowRedC)">
    <path d="M300 140 L380 180 L380 270 C380 320 300 355 300 355 C300 355 220 320 220 270 L220 180 Z"
          fill="none" stroke="#ed1c24" stroke-width="2.5" stroke-opacity="0.7"/>
  </g>
  <path d="M300 150 L372 186 L372 266 C372 312 300 344 300 344 C300 344 228 312 228 266 L228 186 Z"
        fill="#ed1c24" fill-opacity="0.06"/>

  <!-- Inner shield highlight -->
  <path d="M300 165 L360 195 L360 260 C360 298 300 325 300 325 C300 325 240 298 240 260 L240 195 Z"
        fill="none" stroke="#ed1c24" stroke-width="1" stroke-opacity="0.25"/>

  <!-- Lock icon on shield -->
  <g transform="translate(300, 225)" filter="url(#glowRedC)">
    <!-- Lock body -->
    <rect x="-18" y="-3" width="36" height="28" rx="4" fill="none" stroke="#ed1c24" stroke-width="2" stroke-opacity="0.8"/>
    <rect x="-18" y="-3" width="36" height="28" rx="4" fill="#ed1c24" fill-opacity="0.08"/>
    <!-- Lock shackle -->
    <path d="M-10 -3 L-10 -14 C-10 -26 10 -26 10 -14 L10 -3" fill="none" stroke="#ed1c24" stroke-width="2" stroke-opacity="0.8"/>
    <!-- Keyhole -->
    <circle cx="0" cy="10" r="5" fill="#ed1c24" opacity="0.5"/>
    <rect x="-2" y="10" width="4" height="9" rx="2" fill="#ed1c24" opacity="0.4"/>
  </g>

  <!-- Checkmarks around shield - symbolizing protection -->
  <g transform="translate(390, 195)" opacity="0.5">
    <circle cx="0" cy="0" r="10" fill="#00ff88" opacity="0.12"/>
    <path d="M-5 0 L-1.5 3.5 L5 -3.5" stroke="#00ff88" stroke-width="1.8" fill="none" stroke-linecap="round" stroke-linejoin="round"/>
  </g>
  <g transform="translate(395, 255)" opacity="0.4">
    <circle cx="0" cy="0" r="10" fill="#00ff88" opacity="0.12"/>
    <path d="M-5 0 L-1.5 3.5 L5 -3.5" stroke="#00ff88" stroke-width="1.8" fill="none" stroke-linecap="round" stroke-linejoin="round"/>
  </g>
  <g transform="translate(375, 310)" opacity="0.35">
    <circle cx="0" cy="0" r="10" fill="#00ff88" opacity="0.12"/>
    <path d="M-5 0 L-1.5 3.5 L5 -3.5" stroke="#00ff88" stroke-width="1.8" fill="none" stroke-linecap="round" stroke-linejoin="round"/>
  </g>

  <!-- Threat indicators being blocked (X marks) -->
  <g transform="translate(205, 185)" opacity="0.35">
    <circle cx="0" cy="0" r="10" fill="#ed1c24" opacity="0.12"/>
    <line x1="-4" y1="-4" x2="4" y2="4" stroke="#ed1c24" stroke-width="1.5" stroke-linecap="round"/>
    <line x1="4" y1="-4" x2="-4" y2="4" stroke="#ed1c24" stroke-width="1.5" stroke-linecap="round"/>
  </g>
  <g transform="translate(198, 260)" opacity="0.3">
    <circle cx="0" cy="0" r="10" fill="#ed1c24" opacity="0.12"/>
    <line x1="-4" y1="-4" x2="4" y2="4" stroke="#ed1c24" stroke-width="1.5" stroke-linecap="round"/>
    <line x1="4" y1="-4" x2="-4" y2="4" stroke="#ed1c24" stroke-width="1.5" stroke-linecap="round"/>
  </g>
  <g transform="translate(218, 320)" opacity="0.25">
    <circle cx="0" cy="0" r="10" fill="#ed1c24" opacity="0.12"/>
    <line x1="-4" y1="-4" x2="4" y2="4" stroke="#ed1c24" stroke-width="1.5" stroke-linecap="round"/>
    <line x1="4" y1="-4" x2="-4" y2="4" stroke="#ed1c24" stroke-width="1.5" stroke-linecap="round"/>
  </g>

  <!-- Status panel - bottom left -->
  <g transform="translate(90, 440)" opacity="0.4">
    <rect x="-55" y="-20" width="110" height="40" rx="5" fill="#161b22" stroke="#2a2f38" stroke-width="1"/>
    <text x="-40" y="-6" fill="#8a8a8a" font-family="monospace" font-size="7">STATUS</text>
    <rect x="-45" y="-1" width="90" height="1" fill="#2a2f38"/>
    <circle cx="-38" cy="10" r="3" fill="#00ff88" opacity="0.6"/>
    <text x="-30" y="13" fill="#00ff88" font-family="monospace" font-size="8" opacity="0.6">PROTECTED</text>
  </g>

  <!-- Status panel - bottom right -->
  <g transform="translate(510, 440)" opacity="0.4">
    <rect x="-55" y="-20" width="110" height="40" rx="5" fill="#161b22" stroke="#2a2f38" stroke-width="1"/>
    <text x="-40" y="-6" fill="#8a8a8a" font-family="monospace" font-size="7">THREATS</text>
    <rect x="-45" y="-1" width="90" height="1" fill="#2a2f38"/>
    <circle cx="-38" cy="10" r="3" fill="#ed1c24" opacity="0.5"/>
    <text x="-30" y="13" fill="#ed1c24" font-family="monospace" font-size="8" opacity="0.5">BLOCKED</text>
  </g>
</svg>
