<svg xmlns="http://www.w3.org/2000/svg" viewBox="0 0 600 400" fill="none">
  <defs>
    <linearGradient id="bgGrad2" x1="0" y1="0" x2="600" y2="400" gradientUnits="userSpaceOnUse">
      <stop offset="0%" stop-color="#0b0e13"/>
      <stop offset="100%" stop-color="#11151b"/>
    </linearGradient>
    <filter id="glowCyan2" x="-50%" y="-50%" width="200%" height="200%">
      <feGaussianBlur stdDeviation="6" result="blur"/>
      <feMerge>
        <feMergeNode in="blur"/>
        <feMergeNode in="SourceGraphic"/>
      </feMerge>
    </filter>
    <filter id="glowRed2" x="-50%" y="-50%" width="200%" height="200%">
      <feGaussianBlur stdDeviation="5" result="blur"/>
      <feMerge>
        <feMergeNode in="blur"/>
        <feMergeNode in="SourceGraphic"/>
      </feMerge>
    </filter>
    <filter id="softGlow2" x="-50%" y="-50%" width="200%" height="200%">
      <feGaussianBlur stdDeviation="25" result="blur"/>
      <feMerge>
        <feMergeNode in="blur"/>
        <feMergeNode in="SourceGraphic"/>
      </feMerge>
    </filter>
    <clipPath id="keyClip">
      <rect width="600" height="400"/>
    </clipPath>
  </defs>

  <!-- Background -->
  <rect width="600" height="400" fill="url(#bgGrad2)"/>

  <!-- Subtle dot grid -->
  <g fill="#00E0FF" opacity="0.04">
    <circle cx="30" cy="30" r="1"/><circle cx="70" cy="30" r="1"/><circle cx="110" cy="30" r="1"/><circle cx="150" cy="30" r="1"/><circle cx="190" cy="30" r="1"/><circle cx="230" cy="30" r="1"/><circle cx="270" cy="30" r="1"/><circle cx="310" cy="30" r="1"/><circle cx="350" cy="30" r="1"/><circle cx="390" cy="30" r="1"/><circle cx="430" cy="30" r="1"/><circle cx="470" cy="30" r="1"/><circle cx="510" cy="30" r="1"/><circle cx="550" cy="30" r="1"/><circle cx="590" cy="30" r="1"/>
    <circle cx="30" cy="70" r="1"/><circle cx="70" cy="70" r="1"/><circle cx="110" cy="70" r="1"/><circle cx="150" cy="70" r="1"/><circle cx="190" cy="70" r="1"/><circle cx="230" cy="70" r="1"/><circle cx="270" cy="70" r="1"/><circle cx="310" cy="70" r="1"/><circle cx="350" cy="70" r="1"/><circle cx="390" cy="70" r="1"/><circle cx="430" cy="70" r="1"/><circle cx="470" cy="70" r="1"/><circle cx="510" cy="70" r="1"/><circle cx="550" cy="70" r="1"/><circle cx="590" cy="70" r="1"/>
    <circle cx="30" cy="110" r="1"/><circle cx="70" cy="110" r="1"/><circle cx="110" cy="110" r="1"/><circle cx="150" cy="110" r="1"/><circle cx="190" cy="110" r="1"/><circle cx="230" cy="110" r="1"/><circle cx="270" cy="110" r="1"/><circle cx="310" cy="110" r="1"/><circle cx="350" cy="110" r="1"/><circle cx="390" cy="110" r="1"/><circle cx="430" cy="110" r="1"/><circle cx="470" cy="110" r="1"/><circle cx="510" cy="110" r="1"/><circle cx="550" cy="110" r="1"/><circle cx="590" cy="110" r="1"/>
    <circle cx="30" cy="150" r="1"/><circle cx="70" cy="150" r="1"/><circle cx="110" cy="150" r="1"/><circle cx="150" cy="150" r="1"/><circle cx="190" cy="150" r="1"/><circle cx="230" cy="150" r="1"/><circle cx="270" cy="150" r="1"/><circle cx="310" cy="150" r="1"/><circle cx="350" cy="150" r="1"/><circle cx="390" cy="150" r="1"/><circle cx="430" cy="150" r="1"/><circle cx="470" cy="150" r="1"/><circle cx="510" cy="150" r="1"/><circle cx="550" cy="150" r="1"/><circle cx="590" cy="150" r="1"/>
    <circle cx="30" cy="190" r="1"/><circle cx="70" cy="190" r="1"/><circle cx="110" cy="190" r="1"/><circle cx="150" cy="190" r="1"/><circle cx="190" cy="190" r="1"/><circle cx="230" cy="190" r="1"/><circle cx="270" cy="190" r="1"/><circle cx="310" cy="190" r="1"/><circle cx="350" cy="190" r="1"/><circle cx="390" cy="190" r="1"/><circle cx="430" cy="190" r="1"/><circle cx="470" cy="190" r="1"/><circle cx="510" cy="190" r="1"/><circle cx="550" cy="190" r="1"/><circle cx="590" cy="190" r="1"/>
    <circle cx="30" cy="230" r="1"/><circle cx="70" cy="230" r="1"/><circle cx="110" cy="230" r="1"/><circle cx="150" cy="230" r="1"/><circle cx="190" cy="230" r="1"/><circle cx="230" cy="230" r="1"/><circle cx="270" cy="230" r="1"/><circle cx="310" cy="230" r="1"/><circle cx="350" cy="230" r="1"/><circle cx="390" cy="230" r="1"/><circle cx="430" cy="230" r="1"/><circle cx="470" cy="230" r="1"/><circle cx="510" cy="230" r="1"/><circle cx="550" cy="230" r="1"/><circle cx="590" cy="230" r="1"/>
    <circle cx="30" cy="270" r="1"/><circle cx="70" cy="270" r="1"/><circle cx="110" cy="270" r="1"/><circle cx="150" cy="270" r="1"/><circle cx="190" cy="270" r="1"/><circle cx="230" cy="270" r="1"/><circle cx="270" cy="270" r="1"/><circle cx="310" cy="270" r="1"/><circle cx="350" cy="270" r="1"/><circle cx="390" cy="270" r="1"/><circle cx="430" cy="270" r="1"/><circle cx="470" cy="270" r="1"/><circle cx="510" cy="270" r="1"/><circle cx="550" cy="270" r="1"/><circle cx="590" cy="270" r="1"/>
    <circle cx="30" cy="310" r="1"/><circle cx="70" cy="310" r="1"/><circle cx="110" cy="310" r="1"/><circle cx="150" cy="310" r="1"/><circle cx="190" cy="310" r="1"/><circle cx="230" cy="310" r="1"/><circle cx="270" cy="310" r="1"/><circle cx="310" cy="310" r="1"/><circle cx="350" cy="310" r="1"/><circle cx="390" cy="310" r="1"/><circle cx="430" cy="310" r="1"/><circle cx="470" cy="310" r="1"/><circle cx="510" cy="310" r="1"/><circle cx="550" cy="310" r="1"/><circle cx="590" cy="310" r="1"/>
    <circle cx="30" cy="350" r="1"/><circle cx="70" cy="350" r="1"/><circle cx="110" cy="350" r="1"/><circle cx="150" cy="350" r="1"/><circle cx="190" cy="350" r="1"/><circle cx="230" cy="350" r="1"/><circle cx="270" cy="350" r="1"/><circle cx="310" cy="350" r="1"/><circle cx="350" cy="350" r="1"/><circle cx="390" cy="350" r="1"/><circle cx="430" cy="350" r="1"/><circle cx="470" cy="350" r="1"/><circle cx="510" cy="350" r="1"/><circle cx="550" cy="350" r="1"/><circle cx="590" cy="350" r="1"/>
  </g>

  <!-- Background ambient glow -->
  <ellipse cx="300" cy="200" rx="180" ry="150" fill="#ed1c24" opacity="0.02" filter="url(#softGlow2)"/>

  <!-- Central key icon -->
  <g transform="translate(300, 175)" filter="url(#glowRed2)">
    <!-- Key head (circle) -->
    <circle cx="0" cy="-30" r="32" fill="none" stroke="#ed1c24" stroke-width="2" stroke-opacity="0.7"/>
    <circle cx="0" cy="-30" r="32" fill="#ed1c24" fill-opacity="0.05"/>
    <circle cx="0" cy="-30" r="22" fill="none" stroke="#ed1c24" stroke-width="1.2" stroke-opacity="0.35"/>
    <!-- Keyhole in the head -->
    <circle cx="0" cy="-34" r="5" fill="#ed1c24" opacity="0.4"/>
    <rect x="-2.5" y="-34" width="5" height="12" rx="2" fill="#ed1c24" opacity="0.3"/>
    <!-- Key shaft -->
    <rect x="-3" y="2" width="6" height="70" rx="3" fill="#ed1c24" fill-opacity="0.5" stroke="#ed1c24" stroke-width="1" stroke-opacity="0.6"/>
    <!-- Key teeth -->
    <rect x="3" y="50" width="14" height="5" rx="2" fill="#ed1c24" fill-opacity="0.4" stroke="#ed1c24" stroke-width="0.8" stroke-opacity="0.5"/>
    <rect x="3" y="60" width="10" height="5" rx="2" fill="#ed1c24" fill-opacity="0.4" stroke="#ed1c24" stroke-width="0.8" stroke-opacity="0.5"/>
    <rect x="3" y="38" width="12" height="5" rx="2" fill="#ed1c24" fill-opacity="0.4" stroke="#ed1c24" stroke-width="0.8" stroke-opacity="0.5"/>
  </g>

  <!-- Access hierarchy - top level (Admin) -->
  <g transform="translate(300, 65)">
    <rect x="-40" y="-14" width="80" height="28" rx="6" fill="#161b22" stroke="#ed1c24" stroke-width="1.2" stroke-opacity="0.5"/>
    <text x="0" y="5" text-anchor="middle" fill="#ed1c24" font-family="monospace" font-size="10" font-weight="bold" opacity="0.7">ADMIN</text>
  </g>

  <!-- Connection lines from admin to mid-level -->
  <line x1="270" y1="79" x2="170" y2="120" stroke="#ed1c24" stroke-opacity="0.15" stroke-width="1" stroke-dasharray="3 3"/>
  <line x1="330" y1="79" x2="430" y2="120" stroke="#ed1c24" stroke-opacity="0.15" stroke-width="1" stroke-dasharray="3 3"/>

  <!-- Mid level access nodes - left -->
  <g transform="translate(155, 135)">
    <rect x="-35" y="-12" width="70" height="24" rx="5" fill="#161b22" stroke="#00E0FF" stroke-width="1" stroke-opacity="0.4"/>
    <circle cx="-18" cy="0" r="5" fill="none" stroke="#00E0FF" stroke-width="0.8" stroke-opacity="0.5"/>
    <circle cx="-18" cy="-2" r="2.5" fill="#00E0FF" opacity="0.3"/>
    <text x="5" y="4" text-anchor="middle" fill="#00E0FF" font-family="monospace" font-size="8" opacity="0.6">DevOps</text>
  </g>

  <!-- Mid level access nodes - right -->
  <g transform="translate(445, 135)">
    <rect x="-35" y="-12" width="70" height="24" rx="5" fill="#161b22" stroke="#00E0FF" stroke-width="1" stroke-opacity="0.4"/>
    <circle cx="-18" cy="0" r="5" fill="none" stroke="#00E0FF" stroke-width="0.8" stroke-opacity="0.5"/>
    <circle cx="-18" cy="-2" r="2.5" fill="#00E0FF" opacity="0.3"/>
    <text x="5" y="4" text-anchor="middle" fill="#00E0FF" font-family="monospace" font-size="8" opacity="0.6">SecOps</text>
  </g>

  <!-- Connection lines from mid to lower level -->
  <line x1="140" y1="147" x2="95" y2="195" stroke="#00E0FF" stroke-opacity="0.1" stroke-width="0.8" stroke-dasharray="3 3"/>
  <line x1="170" y1="147" x2="195" y2="195" stroke="#00E0FF" stroke-opacity="0.1" stroke-width="0.8" stroke-dasharray="3 3"/>
  <line x1="430" y1="147" x2="405" y2="195" stroke="#00E0FF" stroke-opacity="0.1" stroke-width="0.8" stroke-dasharray="3 3"/>
  <line x1="460" y1="147" x2="505" y2="195" stroke="#00E0FF" stroke-opacity="0.1" stroke-width="0.8" stroke-dasharray="3 3"/>

  <!-- Lower level user nodes - far left -->
  <g transform="translate(85, 210)">
    <circle cx="0" cy="0" r="14" fill="#161b22" stroke="#2a2f38" stroke-width="1"/>
    <circle cx="0" cy="-3" r="4" fill="none" stroke="#00E0FF" stroke-width="0.8" stroke-opacity="0.3"/>
    <path d="M-6 8 C-6 3 6 3 6 8" fill="none" stroke="#00E0FF" stroke-width="0.8" stroke-opacity="0.3"/>
  </g>
  <g transform="translate(195, 210)">
    <circle cx="0" cy="0" r="14" fill="#161b22" stroke="#2a2f38" stroke-width="1"/>
    <circle cx="0" cy="-3" r="4" fill="none" stroke="#00E0FF" stroke-width="0.8" stroke-opacity="0.3"/>
    <path d="M-6 8 C-6 3 6 3 6 8" fill="none" stroke="#00E0FF" stroke-width="0.8" stroke-opacity="0.3"/>
  </g>
  <g transform="translate(405, 210)">
    <circle cx="0" cy="0" r="14" fill="#161b22" stroke="#2a2f38" stroke-width="1"/>
    <circle cx="0" cy="-3" r="4" fill="none" stroke="#00E0FF" stroke-width="0.8" stroke-opacity="0.3"/>
    <path d="M-6 8 C-6 3 6 3 6 8" fill="none" stroke="#00E0FF" stroke-width="0.8" stroke-opacity="0.3"/>
  </g>
  <g transform="translate(505, 210)">
    <circle cx="0" cy="0" r="14" fill="#161b22" stroke="#2a2f38" stroke-width="1"/>
    <circle cx="0" cy="-3" r="4" fill="none" stroke="#00E0FF" stroke-width="0.8" stroke-opacity="0.3"/>
    <path d="M-6 8 C-6 3 6 3 6 8" fill="none" stroke="#00E0FF" stroke-width="0.8" stroke-opacity="0.3"/>
  </g>

  <!-- Session monitoring panel - bottom left -->
  <g transform="translate(105, 310)">
    <rect x="-65" y="-28" width="130" height="56" rx="6" fill="#161b22" stroke="#2a2f38" stroke-width="1"/>
    <text x="-50" y="-14" fill="#8a8a8a" font-family="monospace" font-size="7">SESSION LOG</text>
    <rect x="-55" y="-8" width="110" height="1" fill="#2a2f38"/>
    <text x="-50" y="3" fill="#00ff88" font-family="monospace" font-size="7" opacity="0.6">user01 - granted</text>
    <text x="-50" y="14" fill="#00ff88" font-family="monospace" font-size="7" opacity="0.5">user02 - granted</text>
    <text x="-50" y="25" fill="#ed1c24" font-family="monospace" font-size="7" opacity="0.5">user03 - denied</text>
  </g>

  <!-- Password vault panel - bottom right -->
  <g transform="translate(495, 310)">
    <rect x="-65" y="-28" width="130" height="56" rx="6" fill="#161b22" stroke="#2a2f38" stroke-width="1"/>
    <text x="-50" y="-14" fill="#8a8a8a" font-family="monospace" font-size="7">PASSWORD VAULT</text>
    <rect x="-55" y="-8" width="110" height="1" fill="#2a2f38"/>
    <g transform="translate(-50, 3)">
      <rect x="0" y="-6" width="8" height="8" rx="2" fill="#ed1c24" opacity="0.3"/>
      <text x="14" y="0" fill="#e6e6e6" font-family="monospace" font-size="7" opacity="0.5">••••••••••</text>
    </g>
    <g transform="translate(-50, 14)">
      <rect x="0" y="-6" width="8" height="8" rx="2" fill="#00E0FF" opacity="0.3"/>
      <text x="14" y="0" fill="#e6e6e6" font-family="monospace" font-size="7" opacity="0.5">••••••••••</text>
    </g>
    <g transform="translate(-50, 25)">
      <rect x="0" y="-6" width="8" height="8" rx="2" fill="#00ff88" opacity="0.3"/>
      <text x="14" y="0" fill="#e6e6e6" font-family="monospace" font-size="7" opacity="0.5">••••••••••</text>
    </g>
  </g>

  <!-- Access level indicators on the sides -->
  <g transform="translate(30, 200)" opacity="0.3">
    <rect x="-12" y="-60" width="24" height="120" rx="12" fill="#161b22" stroke="#2a2f38" stroke-width="1"/>
    <rect x="-6" y="-52" width="12" height="20" rx="6" fill="#ed1c24" opacity="0.5"/>
    <rect x="-6" y="-26" width="12" height="20" rx="6" fill="#ffaa00" opacity="0.4"/>
    <rect x="-6" y="0" width="12" height="20" rx="6" fill="#00E0FF" opacity="0.4"/>
    <rect x="-6" y="26" width="12" height="20" rx="6" fill="#00ff88" opacity="0.3"/>
  </g>

  <!-- Right side access bar -->
  <g transform="translate(570, 200)" opacity="0.3">
    <rect x="-12" y="-60" width="24" height="120" rx="12" fill="#161b22" stroke="#2a2f38" stroke-width="1"/>
    <rect x="-6" y="-52" width="12" height="20" rx="6" fill="#ed1c24" opacity="0.5"/>
    <rect x="-6" y="-26" width="12" height="20" rx="6" fill="#ffaa00" opacity="0.4"/>
    <rect x="-6" y="0" width="12" height="20" rx="6" fill="#00E0FF" opacity="0.4"/>
    <rect x="-6" y="26" width="12" height="20" rx="6" fill="#00ff88" opacity="0.3"/>
  </g>
</svg>