<svg xmlns="http://www.w3.org/2000/svg" viewBox="130 90 935 275" fill="white">
	<path d="M 243.778 112.778 C 228.859 127.697, 224 133.156, 224 135.001 C 224 136.847, 228.965 142.411, 244.277 157.723 C 261.467 174.912, 265.003 178, 267.499 178 C 269.994 178, 273.472 174.972, 290.222 158.222 C 305.141 143.303, 310 137.844, 310 135.999 C 310 134.153, 305.035 128.589, 289.723 113.277 C 272.533 96.088, 268.997 93, 266.501 93 C 264.006 93, 260.528 96.028, 243.778 112.778 M 685.991 99.525 C 684.596 103.192, 684.639 288.458, 686.035 291.066 C 686.925 292.728, 688.183 293, 694.976 293 C 699.503 293, 703.164 292.544, 703.542 291.932 C 703.905 291.345, 704.438 288.257, 704.727 285.070 L 705.253 279.276 709.702 283.539 C 714.727 288.354, 723.359 293.247, 729.895 294.986 C 736.975 296.869, 751.509 296.412, 759.072 294.067 C 783.307 286.554, 798.469 261.948, 796.688 233.020 C 795.989 221.662, 793.403 212.778, 788.276 204.127 C 772.143 176.902, 733.319 170.589, 710.250 191.440 L 705 196.185 704.900 149.343 C 704.845 123.579, 704.489 101.375, 704.108 100 C 703.450 97.625, 703.003 97.485, 695.198 97.209 C 687.151 96.925, 686.961 96.973, 685.991 99.525 M 965.461 98.250 C 965.199 98.938, 965.100 142.925, 965.242 196 L 965.500 292.500 973.345 292.794 C 978.268 292.978, 981.713 292.653, 982.595 291.921 C 983.723 290.985, 984 286.473, 984 269.052 C 984 247.437, 984.010 247.339, 986.400 245.094 L 988.799 242.840 1011.048 267.920 L 1033.297 293 1042.526 293 C 1052.897 293, 1055.172 291.867, 1053.253 287.657 C 1052.681 286.400, 1041.140 272.898, 1027.606 257.650 C 1014.073 242.403, 1003 229.620, 1003 229.244 C 1003 228.869, 1012.225 219.298, 1023.500 207.976 C 1034.775 196.654, 1043.993 186.741, 1043.985 185.946 C 1043.945 182.167, 1042.280 181.500, 1032.889 181.500 L 1023.703 181.500 1003.852 201.930 L 984 222.360 984 160.880 C 984 114.396, 983.707 99.107, 982.800 98.200 C 981.128 96.528, 966.100 96.572, 965.461 98.250 M 207.500 104.284 C 202.051 107.155, 199.410 109.138, 199.219 110.500 C 198.832 113.258, 218.136 132.546, 220.410 131.673 C 221.758 131.156, 222 128.941, 222 117.103 C 222 97.847, 221.147 97.093, 207.500 104.284 M 313.094 101.386 C 312.314 102.326, 312.033 107.397, 312.222 117.136 C 312.581 135.698, 312.886 135.820, 325.853 122.597 C 337.647 110.571, 337.651 110.053, 326 104.309 C 316.709 99.728, 314.825 99.301, 313.094 101.386 M 915.352 126.082 C 913.620 126.590, 910.807 128.594, 909.102 130.537 C 906.595 133.392, 906 134.951, 906 138.667 C 906 149.362, 915.595 155.703, 925.510 151.560 C 934.666 147.734, 935.677 132.730, 927.114 127.751 C 923.457 125.625, 919.049 124.999, 915.352 126.082 M 178 138 C 176.152 139.848, 176 141.333, 176 157.566 C 176 174.628, 176.556 178.336, 179.400 180.235 C 180.005 180.639, 189.093 180.976, 199.595 180.985 C 216.836 180.999, 218.851 180.822, 220.345 179.171 C 221.759 177.608, 222 174.654, 222 158.846 C 222 134.294, 223.741 136, 198.686 136 C 181.333 136, 179.857 136.143, 178 138 M 314 138 C 312.144 139.856, 312 141.333, 312 158.500 C 312 182.919, 310 181, 335.443 181 C 354.402 181, 354.925 180.945, 356.443 178.777 C 357.711 176.968, 358 173.245, 358 158.732 C 358 134.557, 359.489 136, 334.545 136 C 317.333 136, 315.856 136.144, 314 138 M 147.580 161.250 C 146.774 162.488, 144.709 166.511, 142.991 170.191 C 140.450 175.632, 140.073 177.267, 140.968 178.941 C 142.005 180.878, 142.952 181, 156.976 181 C 166.793 181, 172.115 180.622, 172.566 179.893 C 172.957 179.260, 169.036 174.557, 163.394 168.893 C 152.944 158.404, 150.275 157.114, 147.580 161.250 M 370.134 168.417 C 365.005 173.647, 361.002 178.505, 361.238 179.213 C 361.915 181.245, 391.939 181.045, 393.226 179 C 393.902 177.926, 392.939 174.944, 389.835 168.500 C 385.913 160.358, 385.212 159.472, 382.480 159.204 C 379.831 158.944, 378.311 160.079, 370.134 168.417 M 518.234 180.498 C 516.438 181.278, 512.561 184.194, 509.618 186.977 L 504.268 192.036 503.713 187.897 C 503.408 185.621, 502.650 183.250, 502.029 182.629 C 501.404 182.004, 497.758 181.500, 493.869 181.500 C 488.064 181.500, 486.591 181.838, 485.419 183.441 C 484.237 185.059, 484 194.034, 484 237.257 C 484 271.103, 484.360 289.804, 485.035 291.066 C 485.925 292.728, 487.183 293, 493.976 293 C 499.203 293, 502.156 292.576, 502.691 291.750 C 503.136 291.063, 503.751 273.625, 504.058 253 C 504.544 220.320, 504.845 214.889, 506.403 210.746 C 509.989 201.211, 521.708 195.098, 531.043 197.895 C 533.268 198.561, 535.888 198.853, 536.865 198.543 C 539.024 197.858, 544.351 187.085, 543.852 184.415 C 542.948 179.581, 526.227 177.024, 518.234 180.498 M 857.207 181.584 C 854.356 183.005, 850.217 186.218, 848.011 188.725 L 844 193.282 843.985 188.891 C 843.961 182.228, 843.118 181.512, 835.290 181.506 C 823.796 181.496, 824.946 175.066, 825.241 237.722 L 825.500 292.500 833.345 292.794 C 838.268 292.978, 841.713 292.653, 842.595 291.921 C 843.750 290.963, 844.003 284.775, 844.017 257.128 C 844.040 212.661, 845.337 206.403, 855.798 200.273 C 860.443 197.550, 863.407 197.231, 875 198.206 C 878.345 198.487, 878.642 198.235, 881.722 192.500 C 886.009 184.517, 885.907 183.314, 880.750 180.973 C 874.234 178.016, 863.826 178.286, 857.207 181.584 M 569 181.641 C 565.139 183.158, 565 184.441, 565 218.467 C 565 263.504, 565.911 269.786, 574.007 280.588 C 581.551 290.654, 594.008 296.093, 609.605 296.132 C 614.613 296.145, 620.688 295.629, 623.105 294.986 C 634.415 291.977, 645.293 283.290, 649.826 273.646 C 653.545 265.735, 654.085 258.345, 653.786 219.500 L 653.500 182.500 648.814 181.594 C 646.010 181.052, 642.396 181.054, 639.814 181.598 L 635.500 182.507 634.939 221.004 C 634.332 262.662, 634.099 264.540, 628.790 270.586 C 617.634 283.292, 594.422 280.805, 587.663 266.181 C 585.595 261.705, 585.478 259.802, 585 222.798 C 584.628 193.982, 584.185 183.782, 583.265 182.863 C 581.949 181.549, 571.510 180.654, 569 181.641 M 913 181.836 L 910.500 182.590 910.500 237.545 L 910.500 292.500 918.914 292.793 C 924.971 293.004, 927.559 292.724, 928.149 291.793 C 929.431 289.773, 929.219 183.254, 927.932 182.458 C 926.271 181.432, 915.787 180.995, 913 181.836 M 1051.571 183.571 C 1047.954 187.189, 1051.821 193.764, 1056.827 192.507 C 1058.286 192.141, 1059.815 191.315, 1060.225 190.671 C 1061.378 188.857, 1061.133 184.533, 1059.800 183.200 C 1058.101 181.501, 1053.431 181.712, 1051.571 183.571 M 1053.011 184.487 C 1052.303 185.340, 1052.046 187.046, 1052.407 188.487 C 1052.879 190.366, 1053.695 191, 1055.641 191 C 1057.878 191, 1058.064 190.782, 1056.961 189.453 C 1055.935 188.217, 1055.511 188.166, 1054.854 189.203 C 1054.325 190.037, 1054.025 189.339, 1054.015 187.250 C 1054.003 184.662, 1054.407 184, 1056 184 C 1057.467 184, 1058 184.667, 1058 186.500 C 1058 187.875, 1058.450 189, 1059 189 C 1060.393 189, 1060.253 185.653, 1058.800 184.200 C 1057.161 182.561, 1054.500 182.692, 1053.011 184.487 M 152.778 203.778 C 137.986 218.569, 133 224.165, 133 225.972 C 133 227.778, 138.107 233.518, 153.218 248.694 C 170.558 266.110, 173.863 269, 176.440 269 C 179.011 269, 182.296 266.149, 199.222 249.222 C 214.141 234.303, 219 228.844, 219 226.999 C 219 225.153, 214.035 219.589, 198.723 204.277 C 181.533 187.088, 177.997 184, 175.501 184 C 173.006 184, 169.528 187.028, 152.778 203.778 M 334.778 203.778 C 319.859 218.697, 315 224.156, 315 226.001 C 315 227.847, 319.965 233.411, 335.277 248.723 C 352.467 265.912, 356.003 269, 358.499 269 C 360.994 269, 364.472 265.972, 381.222 249.222 C 396.014 234.431, 401 228.835, 401 227.028 C 401 225.222, 395.893 219.482, 380.782 204.306 C 363.442 186.890, 360.137 184, 357.560 184 C 354.989 184, 351.704 186.851, 334.778 203.778 M 726.730 199.362 C 719.274 202.503, 714.809 205.963, 710.923 211.612 C 696.423 232.687, 703.161 264.570, 724.315 274.984 C 749.966 287.612, 777.045 268.105, 776.988 237.040 C 776.959 220.928, 769.635 207.828, 756.826 200.975 C 751.221 197.976, 749.474 197.553, 741.500 197.261 C 733.757 196.977, 731.694 197.270, 726.730 199.362 M 140.972 273.534 C 139.858 274.876, 140.252 276.370, 143.550 283.309 C 148.507 293.737, 148.713 294, 151.938 294 C 154.019 294, 156.742 291.848, 163.911 284.537 C 169.015 279.333, 172.999 274.495, 172.764 273.787 C 172.446 272.831, 168.477 272.429, 157.311 272.225 C 144.594 271.992, 142.085 272.193, 140.972 273.534 M 177.557 274.223 C 176.289 276.032, 176 279.755, 176 294.268 C 176 318.443, 174.511 317, 199.455 317 C 223.854 317, 222 318.851, 222 294.500 C 222 270.081, 224 272, 198.557 272 C 179.598 272, 179.075 272.055, 177.557 274.223 M 313.655 273.829 C 312.241 275.392, 312 278.346, 312 294.154 C 312 318.706, 310.259 317, 335.314 317 C 360.079 317, 358.218 318.914, 357.810 293.858 C 357.525 276.381, 357.342 274.720, 355.559 273.418 C 354.044 272.311, 349.415 272, 334.464 272 C 317.178 272, 315.149 272.178, 313.655 273.829 M 361.434 273.107 C 361.043 273.740, 364.973 278.459, 370.625 284.141 C 383.259 296.843, 383.804 296.864, 389.851 284.872 C 393.523 277.589, 394.024 275.914, 393.065 274.122 C 391.986 272.105, 391.192 272, 377.024 272 C 367.207 272, 361.885 272.378, 361.434 273.107 M 244.250 294.794 C 228.597 310.047, 224 315.094, 224 317.023 C 224 318.935, 228.733 324.247, 244.259 339.759 C 261.667 357.152, 264.943 360, 267.542 360 C 270.142 360, 273.331 357.222, 290.283 340.193 C 304.999 325.410, 310 319.773, 310 317.970 C 310 314.425, 270.482 274.987, 266.973 275.031 C 265.130 275.054, 259.343 280.087, 244.250 294.794 M 208.224 330.325 C 203.151 335.498, 199 340.271, 199 340.931 C 199 343.892, 201.458 345.888, 209.542 349.490 C 221.654 354.887, 221.500 355.056, 221.500 336.391 C 221.500 317.220, 221.207 317.086, 208.224 330.325 M 312.667 321.667 C 312.300 322.033, 312 328.526, 312 336.095 C 312 355.127, 312.880 355.893, 326.500 348.716 C 331.498 346.082, 334.631 343.793, 334.849 342.617 C 335.089 341.321, 332.136 337.661, 325.368 330.867 C 315.997 321.461, 314.185 320.148, 312.667 321.667" stroke="none" fill-rule="evenodd"/>
</svg>
